# xmcd CD database file
#
# Track frame offsets:
#	150
#	30497
#	39748
#	48824
#	69013
#	78598
#	93341
#	111467
#	128172
#	135475
#	142867
#	154646
#	170151
#	190887
#
# Disc length: 2622 seconds
#
# Revision: 0
# Processed by: cddbd v1.5.1PL0 Copyright (c) Steve Scherf et al.
# Submitted via: CDex 1.51
#
DISCID=b40a3c0e
DTITLE=STELS806 - Eye Scream
DYEAR=1900
DGENRE=未分類 (日本)
TTITLE0=Beat/Jesus 3 <The Unknown>
TTITLE1=Life
TTITLE2=from Final Fantasy6
TTITLE3=Deadline (1999 Power Style)
TTITLE4=今日も冒険日和☆
TTITLE5=Angra
TTITLE6=背徳ノススメ(Original Version)
TTITLE7=LIKE A SHOOTING STAR
TTITLE8=LUV TO ME(disco mix) from 2DX
TTITLE9=Night's Highway
TTITLE10=from Devil Summoner
TTITLE11=神空を駆け抜けて
TTITLE12=あの季節をもう一度
TTITLE13=ボーナストラック
EXTD=
EXTT0=
EXTT1=
EXTT2=
EXTT3=
EXTT4=
EXTT5=
EXTT6=
EXTT7=
EXTT8=
EXTT9=
EXTT10=
EXTT11=
EXTT12=
EXTT13=
PLAYORDER=
